<?xml version="1.0" standalone="no"?>
<!DOCTYPE svg PUBLIC "-//W3C//DTD SVG 20010904//EN"
 "http://www.w3.org/TR/2001/REC-SVG-20010904/DTD/svg10.dtd">
<svg version="1.0" xmlns="http://www.w3.org/2000/svg"
 width="300.000000pt" height="300.000000pt" viewBox="0 0 300.000000 300.000000"
 preserveAspectRatio="xMidYMid meet">
<metadata>
Created by potrace 1.14, written by Peter Selinger 2001-2017
</metadata>
<g transform="translate(0.000000,300.000000) scale(0.100000,-0.100000)"
fill="#000000" stroke="none">
<path d="M0 1500 l0 -1500 1500 0 1500 0 0 1500 0 1500 -1500 0 -1500 0 0
-1500z m1208 95 c1 -159 6 -283 12 -289 14 -14 539 -10 556 5 7 6 14 32 16 57
2 26 6 46 11 45 4 -2 48 -3 97 -3 l90 0 0 -83 c0 -81 -1 -83 -36 -120 -20 -20
-53 -42 -73 -48 -23 -6 -164 -9 -407 -7 l-371 3 -36 28 c-65 50 -67 58 -67
327 0 159 4 249 11 263 18 35 51 67 84 82 48 21 59 24 85 22 l25 -2 3 -280z
m690 259 c59 -29 92 -65 92 -100 l0 -24 -310 0 c-286 0 -314 2 -348 19 -20 10
-46 30 -58 43 -24 28 -45 74 -37 82 4 3 142 6 308 6 l301 0 52 -26z m-5 -277
c51 -22 97 -74 97 -109 l0 -30 -228 4 c-220 3 -229 4 -277 28 -38 19 -56 36
-72 69 -12 24 -21 47 -19 50 3 4 108 6 234 4 176 -1 237 -5 265 -16z"/>
</g>
</svg>
