<?xml version="1.0" encoding="UTF-8"?>
<svg id="Layer_2" data-name="Layer 2" xmlns="http://www.w3.org/2000/svg" viewBox="0 0 547.57 97.28">
  <defs>
    <style>
      .cls-1 {
        fill: #000;
      }

      .cls-1, .cls-2 {
        stroke-width: 0px;
      }

      .cls-2 {
        fill: #e0353a;
        fill-rule: evenodd;
      }
    </style>
  </defs>
  <g id="Layer_1-2" data-name="Layer 1">
    <g>
      <path class="cls-2" d="M72.06,44.72c.35.97.35,2.19.35,3.5,0,3.03.91,6.03-2.74,7.2-1.88.61-20.77.29-24.41.27-3.89,0-22.33.4-24.34-.31-3.5-1.22-2.59-4.23-2.59-7.16V2.77c-4.51-.49-10.13,1.74-13.27,4.16C1.33,9.78.1,12.98.12,17.39v28.16c0,3.87-.51,10.08.61,13.47,1.15,3.52,4.43,6.38,8.29,8.11,5.04,2.22,10.15,1.84,16.67,1.82h38.45c6.68,0,11.65.49,17.14-1.65,3.86-1.52,7.04-4.35,8.53-7.77,1.27-2.91.75-10.06.75-13.64v-1.16h-18.49Z"/>
      <path class="cls-2" d="M90.57,15.93c.5-4.71-4.39-9.87-10.42-11.96-2.2-.75-4.61-1.22-7.36-1.25-11.93-.1-39.08,0-51.06.02.49,7.61,7.71,13.13,18.05,13.25,2.18.02,49.07.14,50.78-.06Z"/>
      <path class="cls-2" d="M90.57,41.52c.5-4.71-4.39-9.87-10.42-11.97-2.2-.75-4.61-1.23-7.36-1.25-11.93-.1-24.5,0-36.49.02.47,7.61,7.71,13.13,18.05,13.25,2.18.02,34.49.16,36.21-.06Z"/>
    </g>
    <g>
      <path class="cls-1" d="M120.73,18.77c2.78-1.64,5.87-2.46,9.27-2.46v16.78h-4.36c-3.96,0-6.92.85-8.9,2.55-1.98,1.7-2.97,4.68-2.97,8.95v24.01h-15.85V16.87h15.85v8.62c1.85-2.84,4.17-5.08,6.95-6.72Z"/>
      <path class="cls-1" d="M137.46,28.65c2.01-4.02,4.74-7.11,8.21-9.27,3.46-2.16,7.32-3.25,11.59-3.25,3.65,0,6.85.74,9.6,2.23,2.75,1.48,4.87,3.43,6.35,5.84v-7.32h15.85v51.73h-15.85v-7.32c-1.55,2.41-3.69,4.36-6.44,5.84-2.75,1.48-5.95,2.23-9.6,2.23-4.2,0-8.04-1.1-11.5-3.29-3.46-2.19-6.2-5.31-8.21-9.36-2.01-4.05-3.01-8.73-3.01-14.05s1-9.98,3.01-14ZM169.91,33.38c-2.19-2.29-4.87-3.43-8.02-3.43s-5.83,1.13-8.02,3.38c-2.19,2.26-3.29,5.36-3.29,9.32s1.1,7.09,3.29,9.41c2.19,2.32,4.87,3.48,8.02,3.48s5.83-1.14,8.02-3.43c2.19-2.29,3.29-5.41,3.29-9.36s-1.1-7.08-3.29-9.36Z"/>
      <path class="cls-1" d="M246.58,22.2c3.62,3.93,5.42,9.32,5.42,16.18v30.22h-15.76v-28.09c0-3.46-.9-6.15-2.69-8.07-1.79-1.92-4.2-2.87-7.23-2.87s-5.44.96-7.23,2.87c-1.79,1.92-2.69,4.6-2.69,8.07v28.09h-15.85V16.87h15.85v6.86c1.61-2.29,3.77-4.09,6.49-5.42,2.72-1.33,5.78-1.99,9.18-1.99,6.06,0,10.89,1.96,14.51,5.89Z"/>
      <path class="cls-1" d="M262.9,28.65c2.01-4.02,4.74-7.11,8.21-9.27,3.46-2.16,7.32-3.25,11.59-3.25,3.4,0,6.5.71,9.32,2.13,2.81,1.42,5.02,3.34,6.63,5.75V0h15.85v68.61h-15.85v-7.42c-1.48,2.47-3.6,4.45-6.35,5.93-2.75,1.48-5.95,2.23-9.6,2.23-4.26,0-8.13-1.1-11.59-3.29-3.46-2.19-6.2-5.31-8.21-9.36-2.01-4.05-3.01-8.73-3.01-14.05s1-9.98,3.01-14ZM295.35,33.38c-2.19-2.29-4.87-3.43-8.02-3.43s-5.83,1.13-8.02,3.38c-2.19,2.26-3.29,5.36-3.29,9.32s1.1,7.09,3.29,9.41c2.19,2.32,4.87,3.48,8.02,3.48s5.83-1.14,8.02-3.43c2.19-2.29,3.29-5.41,3.29-9.36s-1.1-7.08-3.29-9.36Z"/>
      <path class="cls-1" d="M327.47,18.77c2.78-5.04,6.66-8.96,11.64-11.77,4.97-2.81,10.62-4.22,16.92-4.22,7.73,0,14.34,2.04,19.84,6.12,5.5,4.08,9.18,9.64,11.03,16.69h-17.43c-1.3-2.72-3.14-4.79-5.52-6.21-2.38-1.42-5.08-2.13-8.11-2.13-4.88,0-8.84,1.7-11.87,5.1-3.03,3.4-4.54,7.94-4.54,13.63s1.51,10.23,4.54,13.63c3.03,3.4,6.98,5.1,11.87,5.1,3.03,0,5.73-.71,8.11-2.13,2.38-1.42,4.22-3.49,5.52-6.21h17.43c-1.85,7.05-5.53,12.59-11.03,16.64-5.5,4.05-12.11,6.07-19.84,6.07-6.3,0-11.95-1.4-16.92-4.22-4.98-2.81-8.85-6.72-11.64-11.73-2.78-5.01-4.17-10.72-4.17-17.15s1.39-12.16,4.17-17.2Z"/>
      <path class="cls-1" d="M447.72,16.87v51.73h-15.85v-7.05c-1.61,2.29-3.79,4.13-6.54,5.52-2.75,1.39-5.79,2.09-9.13,2.09-3.96,0-7.45-.88-10.48-2.64-3.03-1.76-5.38-4.31-7.04-7.65-1.67-3.34-2.5-7.26-2.5-11.77v-30.22h15.76v28.09c0,3.46.89,6.15,2.69,8.07,1.79,1.92,4.2,2.87,7.23,2.87s5.53-.96,7.32-2.87c1.79-1.92,2.69-4.6,2.69-8.07v-28.09h15.85Z"/>
      <path class="cls-1" d="M481.93,18.77c2.78-1.64,5.87-2.46,9.27-2.46v16.78h-4.36c-3.96,0-6.92.85-8.9,2.55-1.98,1.7-2.97,4.68-2.97,8.95v24.01h-15.85V16.87h15.85v8.62c1.85-2.84,4.17-5.08,6.95-6.72Z"/>
      <path class="cls-1" d="M547.3,46.54h-35.88c.25,3.21,1.28,5.67,3.11,7.37,1.82,1.7,4.06,2.55,6.72,2.55,3.95,0,6.71-1.67,8.25-5.01h16.87c-.87,3.4-2.43,6.46-4.68,9.18-2.26,2.72-5.09,4.85-8.48,6.4-3.4,1.55-7.2,2.32-11.4,2.32-5.07,0-9.58-1.08-13.54-3.25-3.96-2.16-7.05-5.25-9.27-9.27-2.22-4.02-3.34-8.72-3.34-14.09s1.1-10.07,3.29-14.09c2.19-4.02,5.27-7.11,9.23-9.27,3.95-2.16,8.5-3.25,13.63-3.25s9.46,1.05,13.35,3.15c3.89,2.1,6.94,5.1,9.13,8.99,2.19,3.89,3.29,8.44,3.29,13.63,0,1.48-.09,3.03-.28,4.64ZM531.35,37.73c0-2.72-.93-4.88-2.78-6.49-1.86-1.61-4.17-2.41-6.95-2.41s-4.9.77-6.72,2.32c-1.82,1.55-2.95,3.74-3.38,6.58h19.84Z"/>
    </g>
    <g>
      <path class="cls-1" d="M341.01,83.31v13.83h-2.77v-5.89h-5.92v5.89h-2.77v-13.83h2.77v5.69h5.92v-5.69h2.77Z"/>
      <path class="cls-1" d="M346.52,85.55v3.47h4.66v2.2h-4.66v3.67h5.25v2.26h-8.03v-13.85h8.03v2.26h-5.25Z"/>
      <path class="cls-1" d="M362.77,94.5h-5.51l-.91,2.64h-2.91l4.97-13.85h3.23l4.97,13.85h-2.93l-.91-2.64ZM362.01,92.28l-2-5.79-2,5.79h4Z"/>
      <path class="cls-1" d="M371.25,94.94h4.56v2.2h-7.33v-13.83h2.77v11.63Z"/>
      <path class="cls-1" d="M386.98,83.31v2.24h-3.69v11.59h-2.77v-11.59h-3.69v-2.24h10.15Z"/>
      <path class="cls-1" d="M400.47,83.31v13.83h-2.77v-5.89h-5.92v5.89h-2.77v-13.83h2.77v5.69h5.92v-5.69h2.77Z"/>
      <path class="cls-1" d="M403.46,86.55c.61-1.08,1.45-1.92,2.52-2.52,1.06-.6,2.25-.9,3.58-.9,1.55,0,2.9.4,4.06,1.19,1.16.79,1.97,1.89,2.44,3.29h-3.19c-.32-.66-.76-1.16-1.34-1.49-.58-.33-1.24-.5-1.99-.5-.81,0-1.52.19-2.15.56-.63.38-1.12.91-1.47,1.6-.35.69-.53,1.49-.53,2.42s.17,1.71.53,2.41c.35.69.84,1.23,1.47,1.6.63.38,1.34.56,2.15.56.75,0,1.42-.17,1.99-.51.57-.34,1.02-.84,1.34-1.5h3.19c-.46,1.41-1.27,2.51-2.43,3.3-1.16.79-2.51,1.18-4.07,1.18-1.32,0-2.51-.3-3.58-.9-1.06-.6-1.9-1.44-2.52-2.51-.61-1.07-.92-2.29-.92-3.65s.31-2.58.92-3.66Z"/>
      <path class="cls-1" d="M426.91,94.5h-5.51l-.91,2.64h-2.91l4.97-13.85h3.23l4.97,13.85h-2.93l-.91-2.64ZM426.15,92.28l-2-5.79-2,5.79h4Z"/>
      <path class="cls-1" d="M439.75,97.14l-3.05-5.39h-1.31v5.39h-2.77v-13.83h5.19c1.07,0,1.98.19,2.73.56s1.32.89,1.69,1.53c.38.64.56,1.36.56,2.15,0,.91-.26,1.73-.79,2.47-.53.73-1.31,1.24-2.36,1.52l3.31,5.61h-3.21ZM435.39,89.67h2.32c.75,0,1.31-.18,1.68-.54.37-.36.56-.87.56-1.52s-.19-1.13-.56-1.48c-.37-.35-.93-.52-1.68-.52h-2.32v4.06Z"/>
      <path class="cls-1" d="M448.09,85.55v3.47h4.66v2.2h-4.66v3.67h5.25v2.26h-8.03v-13.85h8.03v2.26h-5.25Z"/>
      <path class="cls-1" d="M470.13,89.67c-.35.65-.9,1.17-1.64,1.57-.75.4-1.69.59-2.82.59h-2.32v5.31h-2.77v-13.83h5.09c1.07,0,1.98.19,2.73.56s1.32.88,1.69,1.53c.38.65.56,1.38.56,2.2,0,.74-.18,1.43-.53,2.08ZM467.25,89.06c.37-.35.55-.84.55-1.48,0-1.35-.75-2.02-2.26-2.02h-2.2v4.02h2.2c.77,0,1.33-.18,1.7-.53Z"/>
      <path class="cls-1" d="M485.04,83.31l-5.07,13.83h-3.37l-5.07-13.83h2.97l3.8,11,3.79-11h2.95Z"/>
      <path class="cls-1" d="M496.12,83.31v2.24h-3.69v11.59h-2.77v-11.59h-3.69v-2.24h10.15Z"/>
      <path class="cls-1" d="M498.13,96.81c-.32-.31-.49-.7-.49-1.16s.16-.85.49-1.16c.32-.31.74-.47,1.24-.47s.89.16,1.21.47c.32.31.48.7.48,1.16s-.16.85-.48,1.16c-.32.31-.72.47-1.21.47s-.92-.16-1.24-.47Z"/>
      <path class="cls-1" d="M510.78,94.94h4.56v2.2h-7.33v-13.83h2.77v11.63Z"/>
      <path class="cls-1" d="M526.52,83.31v2.24h-3.69v11.59h-2.77v-11.59h-3.69v-2.24h10.15Z"/>
      <path class="cls-1" d="M537.21,84.16c1.1.57,1.96,1.38,2.56,2.43.6,1.05.9,2.27.9,3.66s-.3,2.6-.9,3.64c-.6,1.04-1.45,1.84-2.56,2.41-1.1.57-2.38.85-3.83.85h-4.83v-13.83h4.83c1.45,0,2.73.28,3.83.85ZM536.64,93.59c.79-.79,1.19-1.91,1.19-3.35s-.4-2.57-1.19-3.38c-.79-.81-1.92-1.22-3.37-1.22h-1.96v9.13h1.96c1.45,0,2.58-.4,3.37-1.19Z"/>
      <path class="cls-1" d="M542.73,96.81c-.32-.31-.49-.7-.49-1.16s.16-.85.49-1.16c.32-.31.74-.47,1.24-.47s.89.16,1.21.47c.32.31.48.7.48,1.16s-.16.85-.48,1.16c-.32.31-.72.47-1.21.47s-.92-.16-1.24-.47Z"/>
    </g>
  </g>
</svg>