<svg xmlns="http://www.w3.org/2000/svg" xmlns:xlink="http://www.w3.org/1999/xlink" width="118" height="118" viewBox="0 0 118 118">
  <defs>
    <filter id="Ellipse_1" x="0" y="0" width="118" height="118" filterUnits="userSpaceOnUse">
      <feOffset dy="3" input="SourceAlpha"/>
      <feGaussianBlur stdDeviation="3" result="blur"/>
      <feFlood flood-opacity="0.161"/>
      <feComposite operator="in" in2="blur"/>
      <feComposite in="SourceGraphic"/>
    </filter>
  </defs>
  <g id="next" transform="translate(-772 -215)">
    <g transform="matrix(1, 0, 0, 1, 772, 215)" filter="url(#Ellipse_1)">
      <circle id="Ellipse_1-2" data-name="Ellipse 1" cx="50" cy="50" r="50" transform="translate(9 6)" fill="#fff"/>
    </g>
    <path id="arrow_14937654" d="M9.512,2a1.58,1.58,0,0,0-1.105.455,1.35,1.35,0,0,0,.08,2L28.639,21.866,8.487,39.274a1.35,1.35,0,0,0-.08,2,1.607,1.607,0,0,0,2.154.075L31.916,22.9a1.353,1.353,0,0,0,0-2.079L10.56,2.379A1.59,1.59,0,0,0,9.512,2Z" transform="translate(810.799 249.135)"/>
  </g>
</svg>
